<mxfile host="app.diagrams.net" modified="2022-10-05T09:58:33.985Z" agent="5.0 (Windows NT 10.0; Win64; x64) AppleWebKit/537.36 (KHTML, like Gecko) Chrome/105.0.0.0 Safari/537.36" etag="EupnSdL6eKIjYVDMVPhf" version="20.4.0" type="github">
  <diagram id="JoWQCPtSpBeyG2rGUTtg" name="PÃ¡gina-1">
    <mxGraphModel dx="1102" dy="582" grid="1" gridSize="10" guides="1" tooltips="1" connect="1" arrows="1" fold="1" page="1" pageScale="1" pageWidth="827" pageHeight="1169" math="0" shadow="0">
      <root>
        <mxCell id="0" />
        <mxCell id="1" parent="0" />
        <mxCell id="iR9R-s1UasJQJ4D1qSMc-1" value="SWITCH" style="rounded=0;whiteSpace=wrap;html=1;" vertex="1" parent="1">
          <mxGeometry x="270" y="170" width="120" height="60" as="geometry" />
        </mxCell>
        <mxCell id="iR9R-s1UasJQJ4D1qSMc-2" value="PC" style="whiteSpace=wrap;html=1;aspect=fixed;" vertex="1" parent="1">
          <mxGeometry x="100" y="110" width="120" height="120" as="geometry" />
        </mxCell>
        <mxCell id="iR9R-s1UasJQJ4D1qSMc-4" style="edgeStyle=orthogonalEdgeStyle;rounded=0;orthogonalLoop=1;jettySize=auto;html=1;" edge="1" parent="1">
          <mxGeometry relative="1" as="geometry">
            <mxPoint x="160" y="320" as="targetPoint" />
            <mxPoint x="150" y="300" as="sourcePoint" />
            <Array as="points">
              <mxPoint x="160" y="320" />
              <mxPoint x="160" y="320" />
            </Array>
          </mxGeometry>
        </mxCell>
        <mxCell id="iR9R-s1UasJQJ4D1qSMc-3" value="Aplicacion&lt;br&gt;Navegador&lt;br&gt;HTTP&lt;br&gt;MAIL&lt;br&gt;SMTP" style="rounded=0;whiteSpace=wrap;html=1;" vertex="1" parent="1">
          <mxGeometry x="115" y="250" width="90" height="100" as="geometry" />
        </mxCell>
        <mxCell id="iR9R-s1UasJQJ4D1qSMc-5" value="" style="endArrow=classic;startArrow=classic;html=1;rounded=0;entryX=0.5;entryY=1;entryDx=0;entryDy=0;exitX=0.5;exitY=0;exitDx=0;exitDy=0;" edge="1" parent="1" source="iR9R-s1UasJQJ4D1qSMc-3" target="iR9R-s1UasJQJ4D1qSMc-2">
          <mxGeometry width="50" height="50" relative="1" as="geometry">
            <mxPoint x="260" y="350" as="sourcePoint" />
            <mxPoint x="310" y="300" as="targetPoint" />
          </mxGeometry>
        </mxCell>
        <mxCell id="iR9R-s1UasJQJ4D1qSMc-6" value="" style="curved=1;endArrow=classic;html=1;rounded=0;exitX=0.5;exitY=0;exitDx=0;exitDy=0;entryX=0.5;entryY=0;entryDx=0;entryDy=0;" edge="1" parent="1" source="iR9R-s1UasJQJ4D1qSMc-2" target="iR9R-s1UasJQJ4D1qSMc-1">
          <mxGeometry width="50" height="50" relative="1" as="geometry">
            <mxPoint x="390" y="300" as="sourcePoint" />
            <mxPoint x="440" y="250" as="targetPoint" />
            <Array as="points">
              <mxPoint x="270" y="30" />
            </Array>
          </mxGeometry>
        </mxCell>
        <mxCell id="iR9R-s1UasJQJ4D1qSMc-7" value="" style="shape=sumEllipse;perimeter=ellipsePerimeter;whiteSpace=wrap;html=1;backgroundOutline=1;" vertex="1" parent="1">
          <mxGeometry x="500" y="160" width="80" height="80" as="geometry" />
        </mxCell>
        <mxCell id="iR9R-s1UasJQJ4D1qSMc-8" value="" style="endArrow=classic;startArrow=classic;html=1;rounded=0;entryX=0;entryY=0.5;entryDx=0;entryDy=0;exitX=1;exitY=0.5;exitDx=0;exitDy=0;" edge="1" parent="1" source="iR9R-s1UasJQJ4D1qSMc-1" target="iR9R-s1UasJQJ4D1qSMc-7">
          <mxGeometry width="50" height="50" relative="1" as="geometry">
            <mxPoint x="390" y="300" as="sourcePoint" />
            <mxPoint x="440" y="250" as="targetPoint" />
            <Array as="points">
              <mxPoint x="470" y="200" />
            </Array>
          </mxGeometry>
        </mxCell>
        <mxCell id="iR9R-s1UasJQJ4D1qSMc-9" value="ROUTER" style="rounded=0;whiteSpace=wrap;html=1;" vertex="1" parent="1">
          <mxGeometry x="480" y="250" width="120" height="60" as="geometry" />
        </mxCell>
        <mxCell id="iR9R-s1UasJQJ4D1qSMc-10" value="" style="endArrow=classic;startArrow=classic;html=1;rounded=0;entryX=0.5;entryY=1;entryDx=0;entryDy=0;exitX=0.5;exitY=0;exitDx=0;exitDy=0;" edge="1" parent="1" source="iR9R-s1UasJQJ4D1qSMc-9" target="iR9R-s1UasJQJ4D1qSMc-7">
          <mxGeometry width="50" height="50" relative="1" as="geometry">
            <mxPoint x="390" y="300" as="sourcePoint" />
            <mxPoint x="440" y="250" as="targetPoint" />
          </mxGeometry>
        </mxCell>
        <mxCell id="iR9R-s1UasJQJ4D1qSMc-11" value="" style="endArrow=none;dashed=1;html=1;dashPattern=1 3;strokeWidth=2;rounded=0;entryX=1;entryY=0.5;entryDx=0;entryDy=0;" edge="1" parent="1" target="iR9R-s1UasJQJ4D1qSMc-7">
          <mxGeometry width="50" height="50" relative="1" as="geometry">
            <mxPoint x="700" y="310" as="sourcePoint" />
            <mxPoint x="440" y="250" as="targetPoint" />
            <Array as="points">
              <mxPoint x="700" y="200" />
            </Array>
          </mxGeometry>
        </mxCell>
        <mxCell id="iR9R-s1UasJQJ4D1qSMc-12" value="INTERNET" style="ellipse;shape=doubleEllipse;whiteSpace=wrap;html=1;aspect=fixed;" vertex="1" parent="1">
          <mxGeometry x="660" y="310" width="80" height="80" as="geometry" />
        </mxCell>
        <mxCell id="iR9R-s1UasJQJ4D1qSMc-13" value="" style="endArrow=none;dashed=1;html=1;dashPattern=1 3;strokeWidth=2;rounded=0;entryX=0.5;entryY=1;entryDx=0;entryDy=0;" edge="1" parent="1" target="iR9R-s1UasJQJ4D1qSMc-12">
          <mxGeometry width="50" height="50" relative="1" as="geometry">
            <mxPoint x="700" y="420" as="sourcePoint" />
            <mxPoint x="440" y="250" as="targetPoint" />
          </mxGeometry>
        </mxCell>
        <mxCell id="iR9R-s1UasJQJ4D1qSMc-14" value="&lt;b&gt;GMAIL&lt;/b&gt;" style="rounded=1;whiteSpace=wrap;html=1;strokeWidth=2;fillWeight=4;hachureGap=8;hachureAngle=45;fillColor=#1ba1e2;sketch=1;" vertex="1" parent="1">
          <mxGeometry x="640" y="420" width="120" height="60" as="geometry" />
        </mxCell>
        <mxCell id="iR9R-s1UasJQJ4D1qSMc-16" value="" style="endArrow=classic;html=1;rounded=0;exitX=0.5;exitY=1;exitDx=0;exitDy=0;" edge="1" parent="1" source="iR9R-s1UasJQJ4D1qSMc-1">
          <mxGeometry width="50" height="50" relative="1" as="geometry">
            <mxPoint x="390" y="300" as="sourcePoint" />
            <mxPoint x="330" y="440" as="targetPoint" />
          </mxGeometry>
        </mxCell>
        <mxCell id="iR9R-s1UasJQJ4D1qSMc-17" value="PC&lt;br&gt;DESTINATARIO" style="whiteSpace=wrap;html=1;aspect=fixed;" vertex="1" parent="1">
          <mxGeometry x="270" y="440" width="120" height="120" as="geometry" />
        </mxCell>
        <mxCell id="iR9R-s1UasJQJ4D1qSMc-18" style="edgeStyle=orthogonalEdgeStyle;rounded=0;orthogonalLoop=1;jettySize=auto;html=1;" edge="1" parent="1">
          <mxGeometry relative="1" as="geometry">
            <mxPoint x="330" y="650" as="targetPoint" />
            <mxPoint x="320" y="630" as="sourcePoint" />
            <Array as="points">
              <mxPoint x="330" y="650" />
              <mxPoint x="330" y="650" />
            </Array>
          </mxGeometry>
        </mxCell>
        <mxCell id="iR9R-s1UasJQJ4D1qSMc-19" value="Aplicacion&lt;br&gt;Navegador&lt;br&gt;HTTP&lt;br&gt;MAIL&lt;br&gt;SMTP" style="rounded=0;whiteSpace=wrap;html=1;" vertex="1" parent="1">
          <mxGeometry x="285" y="580" width="90" height="100" as="geometry" />
        </mxCell>
        <mxCell id="iR9R-s1UasJQJ4D1qSMc-20" value="" style="endArrow=classic;startArrow=classic;html=1;rounded=0;entryX=0.5;entryY=1;entryDx=0;entryDy=0;exitX=0.5;exitY=0;exitDx=0;exitDy=0;" edge="1" parent="1" source="iR9R-s1UasJQJ4D1qSMc-19" target="iR9R-s1UasJQJ4D1qSMc-17">
          <mxGeometry width="50" height="50" relative="1" as="geometry">
            <mxPoint x="430" y="680" as="sourcePoint" />
            <mxPoint x="480" y="630" as="targetPoint" />
          </mxGeometry>
        </mxCell>
      </root>
    </mxGraphModel>
  </diagram>
</mxfile>
